<?xml version="1.0" encoding="utf-8"?>
<!-- Generator: Adobe Illustrator 22.1.0, SVG Export Plug-In . SVG Version: 6.00 Build 0)  -->
<svg version="1.1" id="Layer_1" xmlns="http://www.w3.org/2000/svg" xmlns:xlink="http://www.w3.org/1999/xlink" x="0px" y="0px"
	 viewBox="0 0 24 24" style="enable-background:new 0 0 24 24;" xml:space="preserve">
<style type="text/css">
	.st0{fill:#203260;}
</style>
<path class="st0" d="M12,0C5.4,0,0,5.4,0,12s5.4,12,12,12s12-5.4,12-12S18.6,0,12,0z M8.9,17.9H6.1V9.4h2.9V17.9z M7.5,8.1
	c-0.9,0-1.6-0.7-1.6-1.6c0-0.9,0.7-1.6,1.6-1.6s1.6,0.7,1.6,1.6C9.1,7.4,8.4,8.1,7.5,8.1z M19,17.9h-2.9v-4.1c0-2.7-2.9-2.5-2.9,0
	v4.1h-2.9V9.4h2.9v1.6c1.2-2.3,5.7-2.5,5.7,2.2V17.9z"/>
</svg>
